<svg xmlns="http://www.w3.org/2000/svg" viewBox="0 0 300 300" role="img" aria-label="Niyodaya">
  <defs>
    <linearGradient id="sunGrad" x1="0" y1="1" x2="0" y2="0">
      <stop offset="0%" stop-color="#b45309"/>
      <stop offset="55%" stop-color="#f59e0b"/>
      <stop offset="100%" stop-color="#fde68a"/>
    </linearGradient>
    <linearGradient id="bookGrad" x1="0" y1="0" x2="0" y2="1">
      <stop offset="0%" stop-color="#1e3a8a"/>
      <stop offset="100%" stop-color="#1e40af"/>
    </linearGradient>
    <linearGradient id="leafGrad" x1="0" y1="1" x2="1" y2="0">
      <stop offset="0%" stop-color="#0f766e"/>
      <stop offset="100%" stop-color="#10b981"/>
    </linearGradient>
    <radialGradient id="flameGrad" cx="50%" cy="70%" r="70%">
      <stop offset="0%" stop-color="#fef3c7"/>
      <stop offset="55%" stop-color="#f59e0b"/>
      <stop offset="100%" stop-color="#b45309"/>
    </radialGradient>
  </defs>
  <g transform="translate(150,160)">
    <circle r="130" fill="#fffbeb" stroke="#1e3a8a" stroke-width="4"/>
    <circle r="120" fill="none" stroke="#f59e0b" stroke-width="2"/>
    <g stroke="url(#sunGrad)" stroke-width="4" stroke-linecap="round" fill="none">
      <line x1="-95" y1="5" x2="-110" y2="-15"/>
      <line x1="-70" y1="-20" x2="-85" y2="-55"/>
      <line x1="-38" y1="-35" x2="-45" y2="-80"/>
      <line x1="0"   y1="-40" x2="0"   y2="-95"/>
      <line x1="38"  y1="-35" x2="45"  y2="-80"/>
      <line x1="70"  y1="-20" x2="85"  y2="-55"/>
      <line x1="95"  y1="5"   x2="110" y2="-15"/>
    </g>
    <path d="M -68 5 A 68 68 0 0 1 68 5 Z" fill="url(#sunGrad)"/>
    <g transform="translate(0,-2)">
      <path d="M -28 0 Q 0 18 28 0 Q 24 -6 0 -6 Q -24 -6 -28 0 Z" fill="#7c2d12" stroke="#451a03" stroke-width="1.2"/>
      <path d="M 28 0 L 36 -2 L 28 -4 Z" fill="#7c2d12"/>
      <circle cx="0" cy="-8" r="2.4" fill="#fef3c7"/>
      <path d="M 0 -10 C -8 -20 -8 -32 0 -44 C 8 -32 8 -20 0 -10 Z" fill="url(#flameGrad)"/>
      <path d="M 0 -15 C -3 -22 -3 -30 0 -38 C 3 -30 3 -22 0 -15 Z" fill="#fffbeb" opacity="0.85"/>
    </g>
    <g transform="translate(0,22)">
      <path d="M -95 15 Q -48 -6 0 6 Q 48 -6 95 15 L 95 45 Q 48 28 0 36 Q -48 28 -95 45 Z" fill="#ffffff" stroke="#1e3a8a" stroke-width="3" stroke-linejoin="round"/>
      <line x1="0" y1="6" x2="0" y2="36" stroke="#1e3a8a" stroke-width="2"/>
      <line x1="-78" y1="18" x2="-18" y2="11" stroke="#94a3b8" stroke-width="2"/>
      <line x1="-78" y1="27" x2="-22" y2="20" stroke="#cbd5e1" stroke-width="2"/>
      <line x1="18" y1="11" x2="78" y2="18" stroke="#94a3b8" stroke-width="2"/>
      <line x1="22" y1="20" x2="78" y2="27" stroke="#cbd5e1" stroke-width="2"/>
      <path d="M -95 45 Q 0 28 95 45 L 95 52 Q 0 35 -95 52 Z" fill="url(#bookGrad)"/>
    </g>
    <g transform="translate(0,60)">
      <path d="M 0 0 C -2 -10 -2 -18 0 -24" stroke="#0f766e" stroke-width="3" fill="none" stroke-linecap="round"/>
      <path d="M 0 -10 C -10 -14 -16 -10 -18 -4 C -12 -4 -4 -8 0 -12 Z" fill="url(#leafGrad)"/>
      <path d="M 0 -16 C 10 -20 16 -16 18 -10 C 12 -10 4 -14 0 -18 Z" fill="url(#leafGrad)"/>
    </g>
  </g>
</svg>
